<svg width="22" height="30" viewBox="0 0 22 30" fill="none" xmlns="http://www.w3.org/2000/svg">
<g clip-path="url(#clip0_677_178)">
<path d="M15.4127 0.749778C15.6563 1.0532 15.7805 1.46262 16.0288 2.28147L21.455 20.1699C19.4488 19.1255 17.2678 18.3722 14.9678 17.9658L11.4348 5.98429C11.377 5.78825 11.1976 5.65376 10.9939 5.65376C10.7896 5.65376 10.6099 5.78895 10.5525 5.98567L7.06233 17.9598C4.75158 18.3643 2.56068 19.119 0.545898 20.1672L5.99866 2.27732C6.24781 1.45989 6.3724 1.05116 6.61596 0.748306C6.83096 0.480934 7.11064 0.273285 7.4283 0.145147C7.78814 0 8.21402 0 9.06583 0H12.9604C13.8133 0 14.2398 0 14.6 0.145449C14.9179 0.273854 15.1977 0.481923 15.4127 0.749778Z" fill="white"/>
<path d="M16.0623 21.0212C15.1678 21.7889 13.3824 22.3124 11.3258 22.3124C8.80163 22.3124 6.68601 21.5237 6.12461 20.4631C5.92391 21.071 5.87891 21.7667 5.87891 22.2111C5.87891 22.2111 5.74667 24.3933 7.25903 25.911C7.25903 25.1229 7.89567 24.484 8.68096 24.484C10.027 24.484 10.0255 25.6626 10.0242 26.6187C10.0242 26.6473 10.0242 26.6758 10.0242 26.704C10.0242 28.1552 10.908 29.3993 12.1649 29.9237C11.9771 29.5362 11.8718 29.101 11.8718 28.6412C11.8718 27.2571 12.6815 26.7417 13.6226 26.1427C14.3713 25.6662 15.2032 25.1367 15.7766 24.0746C16.0757 23.5204 16.2456 22.8856 16.2456 22.2111C16.2456 21.7962 16.1813 21.3965 16.0623 21.0212Z" fill="white"/>
</g>
<defs>
<clipPath id="clip0_677_178">
<rect width="20.9091" height="30" fill="white" transform="translate(0.545898)"/>
</clipPath>
</defs>
</svg>
