<svg width="29" height="30" viewBox="0 0 29 30" fill="none" xmlns="http://www.w3.org/2000/svg">
<g clip-path="url(#clip0_677_365)">
<path d="M27.8492 12.6518C27.7735 12.5894 27.0921 12.0787 25.6286 12.0787C25.25 12.0787 24.8589 12.1161 24.4804 12.1784C24.2028 10.2724 22.6004 9.35062 22.5373 9.30081L22.1462 9.07654L21.8938 9.43782C21.5784 9.92366 21.3387 10.4718 21.1999 11.0324C20.9349 12.1161 21.0989 13.1376 21.6541 14.0096C20.9854 14.3833 19.9003 14.4705 19.6732 14.4829H1.75666C1.28984 14.4829 0.911311 14.8567 0.911311 15.3176C0.886109 16.8623 1.15105 18.407 1.69361 19.8644C2.31183 21.459 3.23292 22.6424 4.41894 23.3649C5.75636 24.1746 7.93913 24.6355 10.3995 24.6355C11.5098 24.6355 12.6201 24.5359 13.7178 24.3365C15.2445 24.0625 16.7081 23.5393 18.0582 22.7794C19.1646 22.1462 20.1615 21.3385 21.0106 20.3877C22.4364 18.8056 23.2817 17.0367 23.8999 15.4671H24.1523C25.7042 15.4671 26.6631 14.8567 27.193 14.3335C27.5463 14.0096 27.8112 13.611 28.0005 13.1625L28.1141 12.8386L27.8492 12.6518Z" fill="#DFDFDF"/>
<path d="M3.42201 13.9722H5.81926C5.93285 13.9722 6.0338 13.8851 6.0338 13.7605V11.6428C6.0338 11.5307 5.94545 11.431 5.81926 11.431H3.42201C3.30846 11.431 3.20752 11.5182 3.20752 11.6428V13.7605C3.22012 13.8851 3.30846 13.9723 3.42201 13.9723V13.9722ZM6.72771 13.9722H9.12501C9.23855 13.9722 9.3395 13.8851 9.3395 13.7605V11.6428C9.3395 11.5307 9.25116 11.431 9.12501 11.431H6.72766C6.61412 11.431 6.51317 11.5182 6.51317 11.6428V13.7605C6.52582 13.8851 6.61416 13.9723 6.72766 13.9723M10.0965 13.9723H12.4938C12.6073 13.9723 12.7082 13.8851 12.7082 13.7605V11.6428C12.7082 11.5307 12.6199 11.431 12.4938 11.431H10.0965C9.98291 11.431 9.88197 11.5182 9.88197 11.6428V13.7605C9.88197 13.8851 9.97031 13.9723 10.0965 13.9723ZM13.4148 13.9723H15.8121C15.9257 13.9723 16.0266 13.8851 16.0266 13.7605V11.6428C16.0266 11.5307 15.9383 11.431 15.8121 11.431H13.4148C13.3013 11.431 13.2003 11.5182 13.2003 11.6428V13.7605C13.2003 13.8851 13.3013 13.9723 13.4148 13.9723ZM6.72771 10.9452H9.12497C9.23851 10.9452 9.33945 10.8456 9.33945 10.7334V8.61572C9.33945 8.50359 9.25111 8.40392 9.12497 8.40392H6.72766C6.61412 8.40392 6.51317 8.49112 6.51317 8.61572V10.7334C6.52582 10.8455 6.61421 10.9452 6.72771 10.9452ZM10.0965 10.9452H12.4938C12.6073 10.9452 12.7082 10.8456 12.7082 10.7334V8.61572C12.7082 8.50359 12.6199 8.40392 12.4938 8.40392H10.0965C9.98291 8.40392 9.88197 8.49112 9.88197 8.61572V10.7334C9.88197 10.8455 9.97031 10.9452 10.0965 10.9452ZM13.4148 10.9452H15.8121C15.9257 10.9452 16.0266 10.8456 16.0266 10.7334V8.61572C16.0266 8.50359 15.9256 8.40392 15.8121 8.40392H13.4148C13.3013 8.40392 13.2003 8.49112 13.2003 8.61572V10.7334C13.2003 10.8455 13.3013 10.9452 13.4148 10.9452ZM13.4148 7.90566H15.8121C15.9257 7.90566 16.0266 7.81845 16.0266 7.6939V5.57618C16.0266 5.46405 15.9256 5.36438 15.8121 5.36438H13.4148C13.3013 5.36438 13.2003 5.45159 13.2003 5.57618V7.6939C13.2003 7.80599 13.3013 7.90566 13.4148 7.90566ZM16.7584 13.9723H19.1557C19.2692 13.9723 19.3701 13.8851 19.3701 13.7605V11.6428C19.3701 11.5307 19.2818 11.431 19.1557 11.431H16.7584C16.6448 11.431 16.5439 11.5182 16.5439 11.6428V13.7605C16.5565 13.8851 16.6449 13.9723 16.7584 13.9723" fill="#DFDFDF"/>
</g>
<defs>
<clipPath id="clip0_677_365">
<rect width="27.228" height="30" fill="white" transform="translate(0.88623)"/>
</clipPath>
</defs>
</svg>
