<svg width="13" height="15" viewBox="0 0 13 15" fill="none" xmlns="http://www.w3.org/2000/svg">
<path d="M8.98125 5.2251H10.3115C10.6643 5.2251 11.0026 5.3535 11.2521 5.58206C11.5015 5.81062 11.6417 6.12061 11.6417 6.44384V12.7813C11.6417 13.1045 11.5015 13.4145 11.2521 13.6431C11.0026 13.8717 10.6643 14.0001 10.3115 14.0001H2.33021C1.97742 14.0001 1.63907 13.8717 1.38961 13.6431C1.14015 13.4145 1 13.1045 1 12.7813V6.44384C1 6.12061 1.14015 5.81062 1.38961 5.58206C1.63907 5.3535 1.97742 5.2251 2.33021 5.2251H3.66042" stroke="#282828" stroke-width="2" stroke-linecap="round" stroke-linejoin="round"/>
<path d="M3.40332 7.94471L6.14956 10.425L8.8958 7.94471M6.14956 1V9.92891" stroke="#282828" stroke-width="2" stroke-linecap="round" stroke-linejoin="round"/>
</svg>
