<svg width="31" height="30" viewBox="0 0 31 30" fill="none" xmlns="http://www.w3.org/2000/svg">
<g clip-path="url(#clip0_677_211)">
<path d="M30.5 23.2453C29.4088 23.5228 28.7337 23.2575 28.1281 22.3482L23.8212 16.3894L23.1987 15.5644L18.1691 22.3678C17.5944 23.1863 16.9916 23.5425 15.9191 23.2528L22.3597 14.6072L16.3634 6.79784C17.3947 6.59722 18.1072 6.69941 18.74 7.62284L23.2072 13.6557L27.7072 7.65566C28.2838 6.83722 28.9034 6.52597 29.9384 6.82784L27.6134 9.91034L24.4634 14.0119C24.0884 14.4807 24.14 14.8013 24.485 15.2541L30.5 23.2453ZM0.5075 14.4628L1.03438 11.8716C2.46875 6.74347 8.34688 4.61253 12.4006 7.78128C14.7697 9.64503 15.3584 12.2813 15.2413 15.2344H1.8875C1.68687 20.55 5.51281 23.7582 10.3906 22.1213C12.1016 21.5466 13.1094 20.2069 13.6137 18.5307C13.8697 17.6907 14.2934 17.5594 15.0828 17.7994C14.6797 19.8957 13.7703 21.6469 11.8484 22.7428C8.97687 24.3835 4.87812 23.8528 2.72187 21.5728C1.4375 20.25 0.906875 18.5738 0.66875 16.7813C0.63125 16.485 0.55625 16.2028 0.5 15.9188C0.505 15.4338 0.5075 14.9488 0.5075 14.4638V14.4628ZM1.91188 14.1066H13.9794C13.9006 10.2628 11.5072 7.53284 8.23625 7.50941C4.64563 7.48128 2.0675 10.1466 1.91188 14.1066Z" fill="white"/>
</g>
<defs>
<clipPath id="clip0_677_211">
<rect width="30" height="30" fill="white" transform="translate(0.5)"/>
</clipPath>
</defs>
</svg>
