<svg width="31" height="30" viewBox="0 0 31 30" fill="none" xmlns="http://www.w3.org/2000/svg">
<path d="M20.1875 10.3125C21.4307 10.3125 22.623 9.81864 23.5021 8.93956C24.3811 8.06049 24.875 6.8682 24.875 5.625C24.875 4.3818 24.3811 3.18951 23.5021 2.31044C22.623 1.43136 21.4307 0.9375 20.1875 0.9375H10.8125C9.5693 0.9375 8.37702 1.43136 7.49794 2.31044C6.61886 3.18951 6.125 4.3818 6.125 5.625C6.125 6.8682 6.61886 8.06049 7.49794 8.93956C8.37702 9.81864 9.5693 10.3125 10.8125 10.3125C9.5693 10.3125 8.37702 10.8064 7.49794 11.6854C6.61886 12.5645 6.125 13.7568 6.125 15C6.125 16.2432 6.61886 17.4355 7.49794 18.3146C8.37702 19.1936 9.5693 19.6875 10.8125 19.6875C9.8854 19.6875 8.97912 19.9624 8.20827 20.4775C7.43741 20.9926 6.8366 21.7246 6.48182 22.5812C6.12703 23.4377 6.0342 24.3802 6.21507 25.2895C6.39594 26.1988 6.84238 27.034 7.49794 27.6896C8.1535 28.3451 8.98873 28.7916 9.89802 28.9724C10.8073 29.1533 11.7498 29.0605 12.6063 28.7057C13.4629 28.3509 14.1949 27.7501 14.71 26.9792C15.2251 26.2084 15.5 25.3021 15.5 24.375V10.3125H20.1875Z" fill="white"/>
<path d="M20.1875 19.6875C22.7763 19.6875 24.875 17.5888 24.875 15C24.875 12.4112 22.7763 10.3125 20.1875 10.3125C17.5987 10.3125 15.5 12.4112 15.5 15C15.5 17.5888 17.5987 19.6875 20.1875 19.6875Z" fill="white"/>
</svg>
