<svg width="30" height="30" viewBox="0 0 30 30" fill="none" xmlns="http://www.w3.org/2000/svg">
<g clip-path="url(#clip0_677_332)">
<path d="M29.4342 13.6633L16.3359 0.565752C15.5821 -0.188584 14.3586 -0.188584 13.6038 0.565752L10.8839 3.28567L14.3343 6.73602C15.1361 6.46509 16.0555 6.64685 16.6946 7.28599C17.3368 7.92923 17.5173 8.85653 17.2398 9.66091L20.565 12.9862C21.3695 12.7091 22.2977 12.8884 22.9403 13.532C23.8383 14.4296 23.8383 15.8845 22.9403 16.7827C22.042 17.6811 20.5871 17.6811 19.6884 16.7827C19.013 16.1066 18.8461 15.1146 19.188 14.2824L16.087 11.1814L16.0867 19.342C16.3115 19.4532 16.5168 19.6 16.6946 19.7768C17.5927 20.6744 17.5927 22.1294 16.6946 23.0284C15.7964 23.9263 14.3408 23.9263 13.4439 23.0284C12.5459 22.1294 12.5459 20.6745 13.4439 19.7769C13.6591 19.5616 13.9148 19.3911 14.1963 19.2752V11.0386C13.9144 10.9235 13.6585 10.7529 13.4439 10.5369C12.7635 9.85743 12.5999 8.85911 12.9485 8.02368L9.54727 4.62208L0.566016 13.6027C-0.188672 14.3578 -0.188672 15.5813 0.566016 16.3358L13.6645 29.4336C14.4186 30.1881 15.6418 30.1881 16.3969 29.4336L29.4341 16.3966C30.1886 15.6419 30.1887 14.4177 29.4342 13.6633Z" fill="white"/>
</g>
<defs>
<clipPath id="clip0_677_332">
<rect width="30" height="30" fill="white"/>
</clipPath>
</defs>
</svg>
