<svg width="28" height="28" viewBox="0 0 28 28" fill="none" xmlns="http://www.w3.org/2000/svg">
<path d="M0 0.5V27.5H28V0.5H0ZM15 21.4732C15 24.1015 13.39 25.3828 11.0594 25.3828C8.95437 25.3828 7.7325 24.3317 7.1125 23.0631L9.255 21.8125C9.66813 22.5195 9.98187 23.1173 10.8837 23.1173C11.6337 23.1173 12.25 22.7913 12.25 21.5226V13.0357H15V21.4732ZM21.2094 25.3225C18.7663 25.3225 17.1875 24.2594 16.4169 22.7913L18.5625 21.5938C19.125 22.4821 19.8594 23.0739 21.1562 23.0739C22.2463 23.0739 22.8794 22.6087 22.8794 21.8836C22.8794 21.014 22.2275 20.706 21.0244 20.1961L20.3669 19.9237C18.4681 19.1451 17.2094 18.1663 17.2094 16.0997C17.2094 14.1971 18.7125 12.8073 21.0619 12.8073C22.735 12.8073 23.9369 13.3087 24.8025 14.7769L22.75 16.0491C22.2987 15.2698 21.8125 14.9643 21.0588 14.9643C20.2881 14.9643 19.7994 15.4356 19.7994 16.0491C19.7994 16.8103 20.2881 17.1183 21.4156 17.5896L22.0731 17.8614C24.31 18.7859 25.5694 19.7297 25.5694 21.8487C25.57 24.1328 23.7094 25.3225 21.2094 25.3225Z" fill="white"/>
</svg>
