<svg width="31" height="30" viewBox="0 0 31 30" fill="none" xmlns="http://www.w3.org/2000/svg">
<path d="M27.7739 3.21362H14.875C14.875 4.75792 15.4885 6.23897 16.5805 7.33095C17.6724 8.42293 19.1535 9.0364 20.6978 9.0364H23.0739V11.3306C23.076 14.5435 25.68 17.1476 28.8929 17.1497V4.3326C28.8929 3.71478 28.3921 3.21362 27.7739 3.21362Z" fill="#D1D1D1"/>
<path d="M21.392 9.64075H8.49316C8.49516 12.8536 11.0992 15.4578 14.3122 15.4599H16.6883V17.7614C16.6924 20.9743 19.2982 23.5766 22.5111 23.5766V10.7599C22.5111 10.1419 22.01 9.64075 21.392 9.64075Z" fill="url(#paint0_linear_677_355)"/>
<path d="M15.0054 16.0641H2.10645C2.10645 19.2799 4.71349 21.8869 7.92922 21.8869H10.3128V24.181C10.3149 27.3909 12.9144 29.9939 16.1245 30V17.1832C16.1245 16.5651 15.6234 16.0641 15.0054 16.0641Z" fill="url(#paint1_linear_677_355)"/>
<defs>
<linearGradient id="paint0_linear_677_355" x1="3517.13" y1="16.0568" x2="2125.6" y2="1642.26" gradientUnits="userSpaceOnUse">
<stop offset="0.18" stop-color="#D2D2D2"/>
<stop offset="1" stop-color="white"/>
</linearGradient>
<linearGradient id="paint1_linear_677_355" x1="3605.04" y1="34.1961" x2="1995.4" y2="1807.88" gradientUnits="userSpaceOnUse">
<stop offset="0.18" stop-color="#CBCBCB"/>
<stop offset="1" stop-color="white"/>
</linearGradient>
</defs>
</svg>
