<svg width="31" height="30" viewBox="0 0 31 30" fill="none" xmlns="http://www.w3.org/2000/svg">
<path d="M14.3062 3.90027L14.9563 5.1214C15.1025 5.34674 15.2608 5.5462 15.4473 5.73196C15.9942 6.27197 16.5039 6.84832 16.973 7.45707C18.0746 8.90354 18.8176 10.5099 19.3483 12.2472C19.6665 13.3084 19.8393 14.3971 19.8522 15.4979C19.9055 18.789 18.7773 21.615 16.5025 23.9636C16.1325 24.3361 15.7328 24.6777 15.3073 24.9853C15.0819 24.9853 14.9753 24.8125 14.8825 24.6534C14.7133 24.3583 14.6007 24.0343 14.5505 23.6979C14.4706 23.2998 14.4181 22.9016 14.4439 22.4905V22.3047C14.4257 22.2651 14.227 3.99391 14.3062 3.90027Z" fill="#949494"/>
<path d="M14.3065 3.85993C14.2799 3.80664 14.2532 3.84699 14.2266 3.87287C14.2395 4.13933 14.1467 4.37686 14.0013 4.60372C13.8414 4.82907 13.6297 5.00188 13.4173 5.18764C12.2373 6.20931 11.3085 7.44338 10.5647 8.82362C9.57505 10.6812 9.06497 12.672 8.92033 14.7679C8.85409 15.5238 9.15938 18.1914 9.39766 18.9611C10.0478 21.0044 11.2157 22.7166 12.7284 24.2027C13.0999 24.5605 13.4973 24.8924 13.9084 25.2114C14.0279 25.2114 14.0408 25.1048 14.0682 25.0256C14.1207 24.8562 14.1606 24.6832 14.1878 24.508L14.4542 22.5179L14.3065 3.85993Z" fill="white"/>
<path d="M14.9565 25.7938C14.9832 25.4893 15.1293 25.2365 15.2884 24.9845C15.1286 24.9183 15.0098 24.7866 14.9169 24.6397C14.8368 24.5005 14.7705 24.3539 14.719 24.2019C14.5332 23.6446 14.4936 23.06 14.4404 22.4905V22.1456C14.3741 22.1989 14.3604 22.6496 14.3604 22.7166C14.3217 23.3185 14.2418 23.917 14.1214 24.5079C14.0818 24.747 14.0551 24.9853 13.9082 25.1977C13.9082 25.2243 13.9082 25.251 13.9211 25.2906C14.1602 25.994 14.2257 26.7104 14.266 27.4405V27.7069C14.266 28.0252 14.2531 27.9582 14.5172 28.0647C14.6238 28.1043 14.7426 28.118 14.8492 28.1972C14.9291 28.1972 14.9421 28.131 14.9421 28.0777L14.9025 27.6399V26.4188C14.8895 26.2057 14.9291 25.994 14.9558 25.7945L14.9565 25.7938Z" fill="#AAAAAA"/>
</svg>
