<svg width="30" height="30" viewBox="0 0 30 30" fill="none" xmlns="http://www.w3.org/2000/svg">
<mask id="mask0_677_159" style="mask-type:luminance" maskUnits="userSpaceOnUse" x="0" y="0" width="30" height="30">
<path d="M15 30C23.2843 30 30 23.2843 30 15C30 6.71573 23.2843 0 15 0C6.71573 0 0 6.71573 0 15C0 23.2843 6.71573 30 15 30Z" fill="white"/>
</mask>
<g mask="url(#mask0_677_159)">
<path d="M15 30C23.2843 30 30 23.2843 30 15C30 6.71573 23.2843 0 15 0C6.71573 0 0 6.71573 0 15C0 23.2843 6.71573 30 15 30Z" fill="white"/>
<path d="M24.918 26.2533L11.5237 9H9V20.995H11.0189V11.5639L23.3332 27.4742C23.8888 27.1023 24.4182 26.6942 24.918 26.2533Z" fill="url(#paint0_linear_677_159)"/>
<path d="M21.1665 9H19.1665V21H21.1665V9Z" fill="url(#paint1_linear_677_159)"/>
</g>
<defs>
<linearGradient id="paint0_linear_677_159" x1="894.559" y1="1050.67" x2="1426.13" y2="1709.52" gradientUnits="userSpaceOnUse">
<stop/>
<stop offset="1" stop-color="white" stop-opacity="0"/>
</linearGradient>
<linearGradient id="paint1_linear_677_159" x1="119.166" y1="9" x2="115.817" y2="890.238" gradientUnits="userSpaceOnUse">
<stop/>
<stop offset="1" stop-color="white" stop-opacity="0"/>
</linearGradient>
</defs>
</svg>
