<svg width="29" height="30" viewBox="0 0 29 30" fill="none" xmlns="http://www.w3.org/2000/svg">
<g clip-path="url(#clip0_677_201)">
<path d="M13.2756 0.380804C14.0152 -0.0431318 14.9785 -0.0450466 15.7174 0.380804C19.4348 2.48442 23.1533 4.58474 26.8701 6.68963C27.5692 7.084 28.0368 7.86315 28.0297 8.66985V21.326C28.0349 22.1661 27.5211 22.9639 26.7835 23.3493C23.0784 25.4413 19.3751 27.5359 15.6705 29.6279C14.9157 30.0602 13.9331 30.0269 13.2018 29.5592C12.091 28.9143 10.9783 28.2726 9.86735 27.6284C9.64035 27.4928 9.38445 27.385 9.22415 27.1645C9.36586 26.9733 9.61921 26.9494 9.82508 26.8659C10.2888 26.7183 10.7146 26.4812 11.1406 26.2512C11.2483 26.1774 11.3798 26.2057 11.4831 26.2718C12.4329 26.8172 13.3744 27.3785 14.3275 27.9187C14.5308 28.0362 14.7367 27.8802 14.9105 27.7831C18.5464 25.7252 22.1868 23.675 25.8221 21.6163C25.9568 21.5514 26.0312 21.4083 26.0203 21.2605C26.0229 17.0855 26.0209 12.9097 26.0216 8.73474C26.037 8.56708 25.9401 8.41293 25.7887 8.34431C22.0964 6.26187 18.406 4.17623 14.7143 2.09325C14.6503 2.04921 14.5745 2.02559 14.4969 2.02547C14.4193 2.02536 14.3435 2.04876 14.2794 2.09261C10.5877 4.17623 6.89789 6.26378 3.20619 8.34612C3.05535 8.41485 2.95412 8.56644 2.97207 8.73474C2.97271 12.9097 2.97207 17.0855 2.97207 21.2611C2.96567 21.3332 2.98148 21.4056 3.01738 21.4684C3.05327 21.5312 3.10753 21.5815 3.17284 21.6125C4.15798 22.172 5.14441 22.7275 6.13019 23.2851C6.68554 23.5844 7.36741 23.7623 7.97928 23.5329C8.51923 23.339 8.89772 22.7872 8.88741 22.213C8.89251 18.0624 8.88486 13.9111 8.89124 9.76112C8.87775 9.57687 9.05228 9.42463 9.23116 9.44197C9.70451 9.43878 10.1785 9.43559 10.6518 9.44325C10.8494 9.43878 10.9854 9.63719 10.961 9.82283C10.959 13.9997 10.9661 18.1768 10.9578 22.3537C10.959 23.4669 10.5024 24.6781 9.47421 25.2228C8.20756 25.88 6.64199 25.7406 5.39064 25.1105C4.30734 24.569 3.27354 23.93 2.20947 23.3498C1.47002 22.9665 0.958754 22.1656 0.963959 21.3261V8.66985C0.956204 7.84644 1.4424 7.05314 2.16326 6.66453C5.86781 4.5708 9.57172 2.47549 13.2756 0.380804Z" fill="white"/>
<path d="M16.5076 9.14782C18.1233 9.04367 19.853 9.08612 21.307 9.88325C22.4327 10.4941 23.0567 11.7761 23.0766 13.0286C23.0452 13.1975 22.8688 13.2907 22.7078 13.2791C22.239 13.2785 21.7701 13.2855 21.3013 13.2759C21.1025 13.2836 20.9869 13.0999 20.9619 12.9239C20.8272 12.3246 20.5009 11.7311 19.9377 11.4421C19.0731 11.0086 18.0707 11.0304 17.1279 11.0394C16.4397 11.076 15.6996 11.1357 15.1165 11.541C14.6689 11.848 14.5329 12.4678 14.6926 12.967C14.8433 13.3254 15.2564 13.441 15.5944 13.5476C17.5415 14.0576 19.6049 14.0069 21.5149 14.678C22.3056 14.9517 23.0791 15.4836 23.3498 16.3127C23.7039 17.424 23.5487 18.7523 22.7592 19.6444C22.119 20.3786 21.1865 20.7781 20.2565 20.9952C19.0193 21.2714 17.7353 21.2785 16.4789 21.1558C15.2974 21.0209 14.0679 20.7101 13.1559 19.9039C12.3759 19.2257 11.995 18.169 12.0328 17.1491C12.0419 16.9769 12.2131 16.8568 12.3779 16.8709C12.8499 16.8671 13.322 16.8658 13.7941 16.8715C13.9826 16.858 14.1224 17.0212 14.1321 17.1992C14.2192 17.7702 14.4335 18.3694 14.9306 18.7079C15.89 19.3278 17.0939 19.2854 18.1925 19.3027C19.1027 19.2623 20.1243 19.2501 20.8671 18.6476C21.259 18.304 21.3751 17.7291 21.2691 17.2345C21.1544 16.817 20.7183 16.6224 20.3437 16.4952C18.4215 15.8862 16.3351 16.1072 14.4315 15.4186C13.6587 15.1451 12.9114 14.6279 12.6145 13.8328C12.2002 12.7075 12.3901 11.3156 13.2623 10.4536C14.1128 9.59612 15.3404 9.26601 16.5076 9.14782Z" fill="white"/>
</g>
<defs>
<clipPath id="clip0_677_201">
<rect width="27.2" height="30" fill="white" transform="translate(0.899902)"/>
</clipPath>
</defs>
</svg>
