<svg width="31" height="30" viewBox="0 0 31 30" fill="none" xmlns="http://www.w3.org/2000/svg">
<g clip-path="url(#clip0_677_275)">
<path d="M1.03487 17.9625C1.20968 17.4342 1.66762 17.0663 2.25983 16.978C2.53908 16.9365 2.85887 16.9542 3.23732 17.032C3.89695 17.1678 4.38632 17.2195 4.74347 17.2295C3.39539 14.9587 2.29923 12.3692 1.66819 9.93159C0.647766 5.99005 1.19306 4.19444 1.83025 3.38224C3.51657 1.23246 5.97686 0.0775748 8.94496 0.0422374C10.5283 0.0229211 11.9183 0.334822 12.6434 0.559117C13.3185 0.440266 14.0445 0.373909 14.8061 0.361637C16.2339 0.338912 17.4954 0.649449 18.5734 1.28768C19.1701 1.08634 20.1279 0.802502 21.234 0.621384C23.8354 0.19529 25.932 0.527303 27.4656 1.60822C29.3227 2.91695 30.1835 5.19081 30.0243 8.36663C29.9738 9.37494 29.4084 12.4428 28.5183 15.3523C28.0067 17.0246 27.4612 18.4134 26.8969 19.4803C26.0966 20.9932 25.2403 21.8841 24.279 22.2041C23.7402 22.3832 22.7612 22.5086 21.7316 21.653C21.6011 21.8107 21.4269 21.9674 21.1958 22.113C20.9024 22.2976 20.5435 22.4485 20.1851 22.5379C18.8935 22.8601 17.6837 22.7795 16.6515 22.328C16.6452 22.5111 16.6403 22.6861 16.6362 22.8372C16.6293 23.0823 16.6225 23.3226 16.6135 23.5474C16.5524 25.067 16.4487 26.2486 16.1417 27.0753C16.1248 27.1208 16.1022 27.1901 16.0782 27.2636C15.9251 27.7315 15.6689 28.5148 15.0173 29.1283C14.3425 29.7638 13.5263 29.9587 12.7787 29.9587C12.4038 29.9587 12.0461 29.9096 11.7323 29.8426C10.614 29.6034 9.3438 29.2391 8.42496 27.9338C7.55623 26.6998 7.13394 24.8412 7.05752 21.9128C7.04762 21.8299 7.03851 21.7509 7.02974 21.6755L7.01151 21.5208L6.80686 21.5387L6.75413 21.5422C5.61504 21.5941 4.22221 21.3531 3.36681 20.9566C2.69089 20.6437 0.524885 19.5028 1.03487 17.9625Z" fill="black"/>
<path d="M2.98336 18.2621C6.37035 18.9592 6.60324 17.8151 6.60324 17.8151C3.02721 12.5209 1.53222 5.80083 2.82221 4.15611C6.34176 -0.330378 12.4341 1.79146 12.5358 1.84645L12.5685 1.85236C13.2377 1.71374 13.9865 1.63124 14.8282 1.6175C16.3607 1.5925 17.5232 2.01836 18.4054 2.6858C18.4054 2.6858 29.2736 -1.78126 28.7681 8.30387C28.6605 10.4493 25.6858 24.5378 22.1378 20.2824C20.841 18.7264 19.5879 17.4107 19.5879 17.4107C18.9656 17.8231 18.2206 18.0336 17.4395 17.958L17.3788 17.9067C17.3977 18.0998 17.3891 18.2888 17.3546 18.5125C18.2686 19.5314 18 19.7102 19.8272 20.0855C21.6761 20.4657 20.59 21.1425 19.8808 21.3195C19.0211 21.5339 17.0322 21.8377 15.6883 19.9608L15.7418 20.175C15.3838 20.4612 15.1323 22.0365 15.1745 23.4646C15.2166 24.8927 15.2447 25.8731 14.9626 26.639C14.6803 27.4048 14.3991 29.1279 11.997 28.6145C9.99 28.1853 8.94987 27.0732 8.80512 25.2182C8.70251 23.8995 8.47007 24.0944 8.45549 22.9154L8.26906 22.3572C8.05416 20.5696 8.2349 19.9928 6.99843 20.2611L6.69777 20.2874C5.78782 20.3287 4.59657 20.1413 3.89742 19.8172C2.39207 19.1202 1.4992 17.9563 2.98359 18.2621H2.98336Z" fill="white"/>
<path d="M17.7692 9.26331C18.0745 9.22093 18.3509 9.26013 18.4907 9.3658C18.5693 9.42523 18.5937 9.49409 18.6003 9.54147C18.6178 9.66702 18.5297 9.80587 18.4754 9.87746C18.3222 10.0802 18.0983 10.2195 17.8766 10.2501C17.8445 10.2547 17.8125 10.2567 17.7807 10.2567C17.4112 10.2567 17.0751 9.96961 17.0455 9.7577C17.0085 9.49227 17.3947 9.31524 17.7692 9.26331ZM7.65794 9.27172C7.6871 9.06367 8.05814 9.00436 8.41028 9.05322C8.76196 9.10208 9.10294 9.26047 9.07446 9.46897C9.05169 9.63112 8.7582 9.90791 8.41085 9.90791C8.38147 9.90791 8.35185 9.90598 8.32202 9.90177C8.09014 9.86973 7.92 9.72281 7.83914 9.63816C7.71614 9.50908 7.64485 9.36523 7.65794 9.27172Z" fill="black"/>
<path d="M1.85604 18.1828C1.98519 17.7932 2.40087 17.6678 3.09148 17.8101C5.14201 18.2323 5.87634 17.9399 6.11744 17.7627C4.5236 15.3402 3.21243 12.4119 2.50508 9.67977C2.17002 8.38558 1.98496 7.18366 1.96981 6.20398C1.95307 5.12875 2.13666 4.3386 2.51521 3.85592C4.04152 1.9101 6.28167 0.866337 8.9933 0.837704C10.8575 0.816797 12.4326 1.29277 12.7379 1.42662C13.3809 1.26709 14.0819 1.16915 14.845 1.15665C16.2445 1.13404 17.4542 1.46832 18.4557 2.14973C18.8907 1.98816 20.015 1.60308 21.39 1.38208C23.767 1.0003 25.6559 1.28959 27.0039 2.24234C28.6123 3.37927 29.3548 5.41156 29.211 8.28264C29.1626 9.24857 28.6109 12.2201 27.7404 15.0658C26.5945 18.8114 25.3488 20.9317 24.0382 21.3679C23.8848 21.4189 23.7079 21.4546 23.5128 21.4546C23.0347 21.4546 22.4485 21.2396 21.8387 20.5081C21.0948 19.6178 20.3253 18.7491 19.5312 17.9032C19.016 18.179 18.45 18.3331 17.8711 18.3486C17.87 18.3637 17.8685 18.3788 17.8671 18.3938C17.9668 18.5123 18.0643 18.6326 18.1598 18.7545C18.5609 19.2626 18.6444 19.3683 19.9355 19.6335C20.3028 19.7092 21.2782 19.9098 21.2926 20.592C21.3081 21.3374 20.1395 21.6504 20.0064 21.6836C19.5424 21.7995 19.0954 21.8566 18.6691 21.8566C17.6324 21.8566 16.72 21.5167 15.9909 20.8589C16.0134 23.5161 15.9023 26.1345 15.5825 26.9322C15.3206 27.5854 14.6808 29.1815 12.6598 29.1813C12.3632 29.1813 12.0368 29.1469 11.6777 29.0701C9.56843 28.619 8.65244 27.6889 8.29814 25.6383C8.10852 24.5424 7.78315 21.9255 7.63008 20.5218C7.3071 20.6223 6.8913 20.6683 6.44179 20.6682C5.50428 20.6682 4.42247 20.4695 3.74405 20.1553C2.98192 19.8022 1.60663 18.9357 1.85604 18.1828ZM6.87912 8.69737C6.88606 9.11176 6.94323 9.48797 7.00382 9.88066C7.06908 10.303 7.1365 10.7397 7.15347 11.2697C7.17021 11.7856 7.10564 12.3219 7.04323 12.8406C6.91704 13.8882 6.78755 14.9667 7.28876 16.031C7.37202 15.8838 7.44619 15.7316 7.51084 15.5754C7.57314 15.4248 7.70844 15.1827 7.89578 14.8478C8.62454 13.5438 10.3311 10.4903 9.45751 9.24425C9.19728 8.87338 8.53685 8.49205 6.87912 8.69737ZM8.88853 1.67682C6.45888 1.73034 4.53693 2.63718 3.17621 4.37201C2.13256 5.70267 3.28178 11.7574 6.60875 16.9809C6.64221 16.9384 6.67584 16.8961 6.70965 16.8539L6.75179 16.8014C5.89206 15.3849 6.06016 13.9833 6.20981 12.7407C6.27131 12.2308 6.32939 11.7491 6.31458 11.2967C6.29932 10.8172 6.23577 10.4058 6.17427 10.0081C6.09877 9.51808 6.02189 9.01098 6.04308 8.41319C6.02724 8.35047 6.02087 8.27639 6.02918 8.18844C6.08328 7.61521 6.73926 5.89958 8.07629 4.34678C8.80767 3.49744 9.87422 2.54696 11.3305 1.90589C10.7041 1.77636 9.84757 1.65558 8.88853 1.67682ZM22.4841 19.9727C23.156 20.7788 23.62 20.6242 23.7726 20.5736C24.7668 20.2427 25.9205 18.1461 26.9376 14.8214C27.8177 11.9447 28.332 9.05188 28.3728 8.24071C28.5013 5.67529 27.878 3.8874 26.5201 2.92659C24.3102 1.36311 20.677 2.29892 19.2171 2.77353C19.2381 2.79421 19.2599 2.81353 19.2807 2.83455C21.6764 5.2484 21.6196 9.37253 21.6136 9.62466C21.6139 9.72193 21.6057 9.85964 21.5945 10.0491C21.5533 10.7427 21.4765 12.0337 21.6815 13.4958C21.8719 14.8544 21.4521 16.1841 20.53 17.1441C20.4354 17.2425 20.3359 17.3361 20.232 17.4246C20.6424 17.8632 21.5345 18.8331 22.4841 19.9727ZM19.924 16.5648C20.6672 15.791 21.0048 14.7147 20.8503 13.6117C20.6339 12.0673 20.7137 10.7222 20.7566 9.99951C20.7627 9.89839 20.768 9.80976 20.7711 9.73988C20.4211 9.43025 18.7993 8.56329 17.6426 8.8277C17.1149 8.94825 16.7933 9.30686 16.6596 9.92361C15.9676 13.1168 16.568 14.4477 17.0504 15.5173C17.1499 15.7376 17.2438 15.9458 17.324 16.1613L17.3862 16.3279C17.5436 16.749 17.69 17.1405 17.7808 17.5123C18.5709 17.51 19.3395 17.1732 19.924 16.5647V16.5648ZM19.8027 20.8712C20.0335 20.8137 20.241 20.7138 20.3627 20.6309C20.261 20.5832 20.08 20.5182 19.7662 20.4537C18.2473 20.1418 18.0127 19.9216 17.5004 19.2727C17.383 19.1238 17.2498 18.9552 17.0655 18.7498L17.0652 18.7495C16.7907 18.4428 16.665 18.4948 16.4373 18.5891C16.2527 18.6652 16.0728 18.8961 15.9999 19.1502C15.9654 19.2702 15.9267 19.4979 16.0535 19.6751C17.1235 21.17 18.6829 21.1508 19.8027 20.8712ZM11.8536 28.2513C13.7117 28.6486 14.3697 27.7026 14.8032 26.6213C15.083 25.9231 15.2206 22.7751 15.123 19.2985C15.1218 19.2522 15.1284 19.2076 15.1411 19.1655C15.1525 19.0825 15.1699 19.0004 15.1931 18.9199C15.3381 18.414 15.6918 17.9909 16.116 17.8154C16.2845 17.7458 16.5939 17.618 16.9656 17.7128C16.8863 17.387 16.7489 17.0189 16.5998 16.6204L16.5373 16.4528C16.4669 16.2639 16.3785 16.0681 16.2851 15.8609C15.7803 14.7419 15.0889 13.2092 15.8392 9.7467C16.1203 8.44978 17.059 7.81644 18.4819 7.96358C19.3349 8.05164 20.1153 8.39501 20.5046 8.59193C20.5883 8.63419 20.6648 8.6751 20.7364 8.71487C20.6277 7.40818 20.2173 4.96615 18.6819 3.42108C17.7151 2.44845 16.4276 1.96805 14.8589 1.99395C11.768 2.0444 9.78595 3.62697 8.66736 4.94582C7.70343 6.08218 7.18149 7.22695 6.97319 7.84439C8.5397 7.68543 9.6051 7.99392 10.1452 8.7643C11.3201 10.44 9.50238 13.6924 8.62876 15.2556C8.46852 15.542 8.33026 15.7896 8.28675 15.8948C8.00226 16.5827 7.63396 17.042 7.36507 17.3772C7.28262 17.4799 7.20267 17.5795 7.14185 17.6666C7.6163 17.803 8.46852 18.1184 8.39085 19.6945C8.45348 20.4853 8.89889 24.1879 9.12519 25.496C9.42391 27.2243 10.0613 27.868 11.8536 28.2514V28.2513ZM4.09744 19.3958C4.5826 19.6205 5.39449 19.789 6.16573 19.8252C7.0176 19.865 7.45128 19.73 7.55332 19.647C7.60116 18.6648 7.23478 18.5622 6.847 18.4536C6.78607 18.4365 6.72662 18.4198 6.66922 18.3998C6.63358 18.4288 6.59451 18.4575 6.55169 18.4857C5.86701 18.9366 4.6458 18.9852 2.92167 18.6301L2.90277 18.6264C3.13533 18.8433 3.53325 19.1344 4.09744 19.3958Z" fill="black"/>
</g>
<defs>
<clipPath id="clip0_677_275">
<rect width="29.1549" height="30" fill="white" transform="matrix(-1 0 0 1 30.0771 0)"/>
</clipPath>
</defs>
</svg>
