<svg width="30" height="30" viewBox="0 0 30 30" fill="none" xmlns="http://www.w3.org/2000/svg">
<path d="M24.0621 10.589C23.7625 10.4867 23.4607 10.3914 23.1568 10.3031C23.2072 10.098 23.2537 9.89174 23.2963 9.68432C23.9818 6.35034 23.5336 3.6644 22.0037 2.78022C20.5389 1.93178 18.1365 2.81596 15.7131 4.93002C15.4748 5.13862 15.2414 5.35346 15.0129 5.57455C14.8605 5.42768 14.7043 5.28393 14.5441 5.1433C12.0041 2.88276 9.4582 1.93061 7.93008 2.81772C6.46523 3.66791 6.02988 6.19272 6.64687 9.35268C6.70859 9.66518 6.77793 9.97631 6.85488 10.2861C6.50471 10.3854 6.15749 10.4948 5.81367 10.6142C2.83945 11.6542 0.9375 13.2849 0.9375 14.9759C0.9375 16.7232 2.97891 18.4751 6.08027 19.5374C6.33184 19.623 6.58574 19.7025 6.84199 19.7759C6.75879 20.1076 6.68516 20.4429 6.62109 20.782C6.03516 23.8874 6.49219 26.3525 7.9541 27.1974C9.46406 28.0699 11.9971 27.1734 14.4662 25.0113C14.6615 24.8402 14.8568 24.6595 15.0521 24.4693C15.299 24.708 15.5529 24.9396 15.8139 25.1642C18.2045 27.2255 20.5652 28.0581 22.0248 27.2109C23.5336 26.3355 24.024 23.6871 23.3871 20.465C23.3383 20.2189 23.282 19.9677 23.2184 19.7115C23.3965 19.6587 23.5709 19.6042 23.7416 19.548C26.9643 18.4775 29.0637 16.7466 29.0637 14.9777C29.0625 13.2785 27.0996 11.6372 24.0621 10.589ZM16.5035 5.83823C18.5795 4.02709 20.5201 3.31225 21.4049 3.82319C22.3465 4.36752 22.7127 6.56245 22.1209 9.44116C22.0818 9.62866 22.0396 9.81557 21.9943 10.0019C20.7554 9.7201 19.4991 9.52122 18.2338 9.40659C17.5093 8.36296 16.7151 7.36948 15.8566 6.43295C16.0668 6.22905 16.282 6.0308 16.5023 5.83823H16.5035ZM9.24199 16.4208C9.49629 16.913 9.76211 17.3992 10.0395 17.8792C10.3219 18.3691 10.6162 18.8517 10.9225 19.3271C10.0518 19.2324 9.18659 19.093 8.33027 18.9093C8.57871 18.1054 8.88457 17.2705 9.24199 16.4208ZM9.24199 13.589C8.89043 12.7576 8.59277 11.9396 8.34844 11.1497C9.15117 10.9699 10.0066 10.8228 10.8984 10.7115C10.5996 11.1779 10.3121 11.6511 10.0359 12.1312C9.75976 12.6113 9.49453 13.0972 9.24023 13.589H9.24199ZM9.88066 15.0052C10.251 14.233 10.6498 13.4755 11.0771 12.733C11.5041 11.9908 11.9586 11.2656 12.4406 10.5574C13.2773 10.4941 14.1352 10.4607 15.0018 10.4607C15.8684 10.4607 16.7314 10.4941 17.5676 10.558C18.0445 11.2646 18.4963 11.9872 18.9229 12.7259C19.3494 13.4646 19.7535 14.2185 20.1352 14.9876C19.7586 15.7626 19.3555 16.5232 18.9258 17.2693C18.4996 18.0115 18.0504 18.7388 17.5781 19.4513C16.7432 19.5099 15.8789 19.5421 15 19.5421C14.1211 19.5421 13.2732 19.5146 12.4535 19.4613C11.968 18.7507 11.5098 18.0224 11.0789 17.2763C10.648 16.5302 10.248 15.7732 9.87891 15.0052H9.88066ZM19.9658 17.871C20.249 17.3796 20.5209 16.8818 20.7814 16.3775C21.1386 17.1873 21.4539 18.015 21.726 18.8572C20.8596 19.0523 19.9836 19.2019 19.1016 19.3054C19.3992 18.8331 19.6873 18.355 19.9658 17.871ZM20.7697 13.5896C20.5104 13.0955 20.2406 12.6072 19.9605 12.1247C19.6871 11.649 19.4021 11.179 19.1057 10.715C20.0027 10.8287 20.8635 10.9798 21.6703 11.1644C21.4109 11.9874 21.1103 12.7968 20.7697 13.5896ZM15.0135 7.2937C15.5986 7.93301 16.151 8.60144 16.6687 9.29643C15.5613 9.2437 14.4531 9.2437 13.3441 9.29643C13.8908 8.57338 14.4504 7.90248 15.0135 7.2937ZM8.53477 3.85893C9.47578 3.31284 11.5564 4.0933 13.7496 6.04272C13.8896 6.16752 14.0309 6.29819 14.1715 6.43354C13.3086 7.36994 12.5088 8.36255 11.7773 9.40483C10.5148 9.51858 9.26098 9.71431 8.02383 9.99076C7.95234 9.70326 7.88789 9.41381 7.83047 9.12241C7.30019 6.41362 7.65117 4.37162 8.53477 3.85893ZM7.16309 18.6158C6.92871 18.549 6.69727 18.4765 6.46875 18.3984C5.09766 17.9296 3.96504 17.3179 3.1875 16.6517C2.49141 16.0546 2.13867 15.4587 2.13867 14.9759C2.13867 13.9499 3.66562 12.641 6.21211 11.7533C6.53203 11.6419 6.85469 11.5402 7.18008 11.448C7.55827 12.6634 8.0163 13.8525 8.55117 15.0076C8.00992 16.1786 7.54623 17.3839 7.16309 18.6158ZM13.6746 24.1042C12.583 25.0605 11.4896 25.7384 10.5258 26.08C9.65977 26.3865 8.97012 26.3953 8.55351 26.1544C7.66641 25.6417 7.29727 23.6619 7.80059 21.0064C7.86035 20.6939 7.92871 20.3814 8.00566 20.0689C9.2552 20.3381 10.5216 20.5219 11.7961 20.6191C12.5347 21.6668 13.3411 22.665 14.2102 23.6074C14.0355 23.779 13.8568 23.9443 13.6746 24.1042ZM15.0469 22.7437C14.4773 22.1279 13.909 21.4464 13.3547 20.714C13.8934 20.7351 14.4418 20.7456 15 20.7456C15.573 20.7456 16.1402 20.7333 16.6992 20.7081C16.1834 21.4143 15.6319 22.0937 15.0469 22.7437ZM22.343 24.4189C22.1754 25.3236 21.8385 25.9271 21.4219 26.1685C20.5354 26.683 18.6398 26.0144 16.5961 24.2513C16.3617 24.0497 16.1273 23.8335 15.8889 23.6068C16.741 22.6608 17.5285 21.6585 18.2461 20.6068C19.5276 20.4982 20.8002 20.3014 22.0547 20.0179C22.1121 20.2499 22.1629 20.4773 22.207 20.6999C22.4889 22.1238 22.5293 23.4117 22.343 24.4189ZM23.3625 18.4048C23.209 18.4558 23.0508 18.505 22.8902 18.5531C22.4969 17.3319 22.021 16.139 21.4658 14.9824C22.0001 13.8412 22.4574 12.6655 22.8346 11.4632C23.1223 11.547 23.4018 11.6349 23.6707 11.7281C26.2734 12.6257 27.8613 13.9546 27.8613 14.9759C27.8613 16.0658 26.1463 17.4802 23.3625 18.4048Z" fill="white"/>
<path d="M15.0001 17.4932C15.4988 17.4948 15.9867 17.3484 16.4021 17.0725C16.8175 16.7967 17.1417 16.4037 17.3337 15.9435C17.5256 15.4833 17.5767 14.9764 17.4804 14.4871C17.3841 13.9979 17.1448 13.5481 16.7928 13.195C16.4408 12.8418 15.9918 12.601 15.5029 12.5031C15.0139 12.4052 14.5069 12.4546 14.046 12.6451C13.5852 12.8356 13.1912 13.1585 12.914 13.573C12.6368 13.9875 12.4888 14.475 12.4888 14.9736C12.4881 15.304 12.5525 15.6313 12.6784 15.9367C12.8042 16.2422 12.9891 16.5199 13.2223 16.7538C13.4555 16.9878 13.7326 17.1736 14.0376 17.3004C14.3427 17.4273 14.6697 17.4928 15.0001 17.4932Z" fill="white"/>
</svg>
