<svg width="32" height="30" viewBox="0 0 32 30" fill="none" xmlns="http://www.w3.org/2000/svg">
<path d="M22.0811 20.8685C23.2445 20.7483 24.127 19.747 24.0869 18.5454C24.0469 17.3439 23.0439 16.3826 21.8403 16.3826H21.7602C20.5164 16.4227 19.5536 17.464 19.5938 18.7056C19.6339 19.3064 19.8746 19.8271 20.2356 20.1875C18.8717 22.8711 16.7856 24.8336 13.6564 26.4757C11.5302 27.5972 9.32377 27.9977 7.11736 27.7174C5.31203 27.4771 3.90792 26.6761 3.02521 25.3543C1.74153 23.3918 1.62122 21.2689 2.70441 19.1462C3.46669 17.6242 4.67007 16.5027 5.43235 15.942C5.27189 15.4214 5.03114 14.5402 4.91082 13.8995C-0.906232 18.1049 -0.304417 23.7923 1.46076 26.4757C2.78458 28.4784 5.47249 29.72 8.44118 29.72C9.24348 29.72 10.0458 29.6399 10.8482 29.4397C15.9833 28.4384 19.8747 25.3943 22.0811 20.8685ZM29.1418 15.9021C26.0928 12.3374 21.5997 10.3749 16.4646 10.3749H15.8228C15.4617 9.65394 14.6995 9.17324 13.857 9.17324H13.7767C12.5332 9.21332 11.5704 10.2546 11.6105 11.4963C11.6506 12.6978 12.6535 13.6591 13.857 13.6591H13.9372C14.8198 13.619 15.5821 13.0583 15.903 12.2973H16.6251C19.6741 12.2973 22.5625 13.1784 25.1702 14.9007C27.176 16.2224 28.6203 17.9447 29.4226 20.0274C30.1046 21.7096 30.0644 23.3517 29.3423 24.7536C28.2191 26.8763 26.3336 28.0378 23.8463 28.0378C22.2416 28.0378 20.7171 27.5571 19.9147 27.1967C19.4735 27.5972 18.6711 28.238 18.1094 28.6386C19.8345 29.4396 21.5997 29.8802 23.2846 29.8802C27.1359 29.8802 29.9842 27.7574 31.0674 25.6347C32.2308 23.3116 32.1505 19.3064 29.1418 15.9021ZM8.7621 21.5492C8.80224 22.7509 9.80515 23.712 11.0087 23.712H11.0889C12.3326 23.6721 13.2954 22.6306 13.2552 21.389C13.2152 20.1874 12.2122 19.2263 11.0087 19.2263H10.9285C10.8482 19.2263 10.7278 19.2263 10.6477 19.2662C9.00285 16.5427 8.32086 13.579 8.56161 10.3747C8.72195 7.97162 9.52437 5.88887 10.9285 4.16659C12.0918 2.68466 14.3384 1.96373 15.863 1.92377C20.1153 1.84362 21.9205 7.13045 22.0409 9.25328C22.5625 9.37339 23.4451 9.65382 24.0469 9.85409C23.5654 3.36575 19.5536 0.00134277 15.7025 0.00134277C12.0918 0.00134277 8.7621 2.60474 7.43815 6.44973C5.59281 11.5764 6.79631 16.5028 9.04287 20.3878C8.84239 20.6681 8.72195 21.1086 8.7621 21.5492Z" fill="white"/>
</svg>
