<svg width="42" height="30" viewBox="0 0 42 30" fill="none" xmlns="http://www.w3.org/2000/svg">
<g clip-path="url(#clip0_677_195)">
<path d="M35.4557 17.2344C34.054 17.2423 32.8402 17.5781 31.8222 18.0782C31.4464 17.336 31.0705 16.6875 31.0079 16.2032C30.9374 15.6407 30.8513 15.2969 30.9374 14.6251C31.0235 13.9531 31.415 13 31.415 12.9219C31.4071 12.8516 31.3288 12.5078 30.5223 12.5C29.7158 12.4922 29.0188 12.6562 28.9405 12.8672C28.8622 13.0781 28.7056 13.5625 28.6038 14.0625C28.4628 14.7969 26.9906 17.3984 26.1528 18.7656C25.8787 18.2344 25.6438 17.7656 25.5967 17.3905C25.5263 16.8281 25.4401 16.4843 25.5263 15.8125C25.6124 15.1405 26.004 14.1875 26.004 14.1094C25.9961 14.0391 25.9178 13.6953 25.1113 13.6875C24.3047 13.6797 23.6078 13.8438 23.5295 14.0547C23.4512 14.2656 23.3651 14.7656 23.1928 15.25C23.0283 15.7344 21.0706 20.0781 20.5616 21.2109C20.3032 21.7891 20.0762 22.25 19.9116 22.5625C19.7472 22.875 19.9038 22.5859 19.8882 22.6172C19.7472 22.8828 19.6689 23.0312 19.6689 23.0312V23.0391C19.5593 23.2345 19.4418 23.4219 19.3869 23.4219C19.3478 23.4219 19.2694 22.8984 19.4026 22.1798C19.6923 20.6719 20.3971 18.3204 20.3893 18.2345C20.3893 18.1954 20.5224 17.7812 19.9351 17.5704C19.3634 17.3595 19.1599 17.711 19.1128 17.711C19.0658 17.711 19.0267 17.836 19.0267 17.836C19.0267 17.836 19.661 15.1877 17.8129 15.1877C16.654 15.1877 15.0565 16.4455 14.2656 17.5939C13.7644 17.8673 12.6994 18.4454 11.5718 19.0627C11.1411 19.297 10.6948 19.547 10.2719 19.7736L10.1859 19.6797C7.94626 17.2969 3.80379 15.6094 3.97606 12.4063C4.03871 11.2422 4.44591 8.17188 11.9322 4.45313C18.0637 1.40625 22.9736 2.24219 23.827 4.10156C25.0408 6.75781 21.2037 11.6953 14.8296 12.4063C12.402 12.6797 11.1255 11.7422 10.8046 11.3906C10.4678 11.0234 10.4209 11.0078 10.2956 11.0781C10.092 11.1875 10.2173 11.5156 10.2956 11.7109C10.4835 12.2031 11.2666 13.0781 12.5978 13.5156C13.7645 13.8984 16.615 14.1094 20.0605 12.7813C23.9211 11.2891 26.9359 7.14844 26.051 3.6875C25.1505 0.164064 19.2931 -0.992186 13.7568 0.968751C10.4599 2.14063 6.8891 3.96875 4.32062 6.36719C1.26662 9.21094 0.781117 11.6953 0.984716 12.7266C1.69739 16.4062 6.77947 18.8047 8.81547 20.5781C8.71367 20.6327 8.6197 20.6874 8.53356 20.7344C7.51556 21.2343 3.63934 23.2578 2.66833 25.3984C1.57202 27.8202 2.84061 29.5625 3.68633 29.7969C6.3018 30.5234 8.97992 29.2188 10.4286 27.0703C11.8694 24.9219 11.6972 22.1328 11.0316 20.8594L11.008 20.8125L11.8067 20.3438C12.3236 20.0391 12.8326 19.7578 13.2789 19.5155C13.0284 20.1952 12.8482 20.9999 12.7543 22.1718C12.6447 23.5469 13.2085 25.328 13.9524 26.0312C14.2813 26.3358 14.6729 26.3437 14.9156 26.3437C15.777 26.3437 16.1685 25.6327 16.5992 24.7812C17.1317 23.7421 17.6016 22.539 17.6016 22.539C17.6016 22.539 17.0143 25.7968 18.6196 25.7968C19.2069 25.7968 19.7942 25.039 20.0604 24.6484V24.6562C20.0604 24.6562 20.0761 24.6327 20.1074 24.578C20.1403 24.5296 20.1716 24.4801 20.2014 24.4297V24.4141C20.4363 24.0078 20.961 23.0781 21.744 21.5391C22.7541 19.5547 23.7252 17.0703 23.7252 17.0703C23.7252 17.0703 23.8192 17.6797 24.1089 18.6797C24.2811 19.2735 24.657 19.9219 24.9467 20.5547C24.7118 20.8828 24.5709 21.0704 24.5709 21.0704L24.5787 21.0782C24.3908 21.3282 24.1793 21.5939 23.9601 21.8595C23.1614 22.8126 22.2061 23.8986 22.0808 24.2111C21.932 24.5782 21.9633 24.8516 22.253 25.0705C22.4645 25.2267 22.8404 25.2579 23.2397 25.2267C23.9601 25.1798 24.4613 25.0002 24.7119 24.8907C25.1034 24.7501 25.5498 24.5391 25.9805 24.2266C26.7636 23.6486 27.2412 22.8283 27.1943 21.7345C27.1708 21.133 26.975 20.5392 26.7322 19.9767C26.8027 19.8752 26.8733 19.7735 26.9437 19.6642C28.1809 17.8595 29.1363 15.8752 29.1363 15.8752C29.1363 15.8752 29.2302 16.4845 29.52 17.4845C29.6687 17.9923 29.9663 18.5471 30.2326 19.094C29.0736 20.0393 28.3454 21.133 28.0948 21.8518C27.6328 23.1799 27.993 23.7815 28.6743 23.9221C28.9796 23.9846 29.4182 23.844 29.747 23.7034C30.1542 23.5705 30.6475 23.3439 31.1018 23.008C31.8849 22.4299 32.6366 21.6252 32.5975 20.5393C32.574 20.0393 32.4409 19.5471 32.2607 19.0784C33.2474 18.6721 34.5238 18.4377 36.1448 18.633C39.6295 19.0393 40.3186 21.2112 40.1856 22.1174C40.0524 23.0238 39.3242 23.5237 39.0813 23.6799C38.8386 23.8284 38.7603 23.8831 38.7838 23.9924C38.8151 24.1566 38.9247 24.1487 39.1362 24.1175C39.4259 24.0705 40.9685 23.3753 41.0312 21.7035C41.1252 19.5548 39.0813 17.211 35.4557 17.2344ZM8.58055 26.2734C7.42943 27.5313 5.80846 28.0078 5.11935 27.6016C4.37543 27.1719 4.66509 25.3203 6.08254 23.9844C6.94392 23.1719 8.06372 22.4219 8.79981 21.9609C8.96425 21.8594 9.21484 21.711 9.51241 21.5313C9.55939 21.5001 9.59071 21.4844 9.59071 21.4844C9.64553 21.4531 9.70818 21.4141 9.77082 21.375C10.2955 23.2813 9.79431 24.9531 8.58055 26.2734ZM16.9986 20.5625C16.5992 21.5391 15.7535 24.0469 15.2445 23.9063C14.8059 23.7891 14.5398 21.8906 15.1583 20.0156C15.4715 19.0702 16.1371 17.9453 16.5287 17.5077C17.1631 16.8046 17.8521 16.5702 18.0244 16.8593C18.228 17.2344 17.2492 19.9531 16.9986 20.5625ZM23.9445 23.875C23.7722 23.961 23.6156 24.0234 23.5451 23.9766C23.4903 23.9454 23.6155 23.8282 23.6155 23.8282C23.6155 23.8282 24.4847 22.8985 24.8293 22.4688C25.0251 22.2189 25.26 21.9298 25.5106 21.6016V21.6954C25.5106 22.8203 24.43 23.5703 23.9445 23.875ZM29.3006 22.6563C29.1754 22.5625 29.1911 22.2734 29.6139 21.3672C29.7784 21.0078 30.1542 20.4062 30.8041 19.8359C30.8825 20.0703 30.9295 20.2968 30.9216 20.5078C30.9139 21.9141 29.9115 22.4375 29.3006 22.6563Z" fill="#FFFCFD"/>
</g>
<defs>
<clipPath id="clip0_677_195">
<rect width="40.0935" height="30" fill="white" transform="translate(0.953125)"/>
</clipPath>
</defs>
</svg>
