<svg width="31" height="30" viewBox="0 0 31 30" fill="none" xmlns="http://www.w3.org/2000/svg">
<path d="M24.75 9.56901V20.3845L15.5658 25.769L15.4814 25.8459V29.9226L15.5658 29.9995L28.4968 22.5304V7.46948H28.3735L24.7275 9.50854V9.59292" fill="#6C6C6C"/>
<path d="M6.34965 20.4609L15.5803 25.807V30L2.54199 22.5V7.5H2.67324L6.31168 9.61547L6.35012 9.73875V20.5078" fill="#C0C0C0"/>
<path d="M6.35 9.71531L2.50391 7.5L15.5352 0L28.4961 7.46906L24.7498 9.56906L15.5188 4.31531L6.33453 9.69984" fill="white"/>
<path d="M15.4036 19.2235L15.3037 19.1236V15.0699L15.4036 15.016V14.9161L18.8803 12.8855H18.9881V17.07L15.3806 19.2085" fill="#6C6C6C"/>
<path d="M11.7346 17.2233V12.8766H11.8344L15.3735 14.9381V19.2305L11.7041 17.2228" fill="#C0C0C0"/>
<path d="M15.3429 10.7461L11.7354 12.8846L15.4043 15L19.0118 12.8925L15.3424 10.7231" fill="white"/>
<path d="M10.9114 21.8766L10.8115 21.7767V17.715L10.9114 17.6611V17.5613L14.3881 15.5306H14.4959V19.7152L10.8884 21.8536" fill="#6C6C6C"/>
<path d="M7.24219 19.8693V15.5231H7.34203L10.8811 17.5846V21.877L7.24266 19.8693" fill="#C0C0C0"/>
<path d="M10.8577 13.3921L7.24219 15.5231L10.9116 17.6615L14.5191 15.554L10.8497 13.3846" fill="white"/>
<path d="M20.219 21.9769L20.1191 21.8771V17.8154L20.219 17.7614V17.6616L23.6957 15.631H23.8035V19.8155L20.196 21.9539" fill="#6C6C6C"/>
<path d="M16.5496 19.9687V15.6234H16.665L20.204 17.685V21.9773L16.5342 19.9687" fill="#C0C0C0"/>
<path d="M20.1573 13.4615L16.5498 15.6L20.2192 17.7384L23.8267 15.6309L20.1573 13.4615Z" fill="white"/>
<path d="M15.7268 24.6235L15.627 24.5236V20.461L15.7268 20.4071V20.3072L19.2035 18.2766H19.3113V22.4611L15.7038 24.5996" fill="#6C6C6C"/>
<path d="M12.0498 22.6154V18.2766H12.1496L15.6887 20.3382V24.6305L12.0503 22.6149" fill="#C0C0C0"/>
<path d="M15.6653 16.1391L12.0498 18.2766L15.7267 20.3841L19.3342 18.2766L15.6648 16.1382" fill="white"/>
<path d="M15.4036 13.4616L15.3037 13.3617V9.31548L15.4036 9.26157V9.16173L18.8803 7.1311H18.9881V11.3156L15.4036 13.4616Z" fill="#6C6C6C"/>
<path d="M11.7346 11.4694V7.12317H11.8344L15.3735 9.18473V13.4616L11.7041 11.4539" fill="#C0C0C0"/>
<path d="M15.3429 5.00012L11.7354 7.13856L15.4047 9.277L19.0122 7.1695L15.3429 5.00012Z" fill="white"/>
<path d="M10.9114 16.1157L10.8115 16.0158V11.9236L10.9114 11.8697V11.7699L14.3881 9.73926H14.4959V13.9238L10.8884 16.0622" fill="#6C6C6C"/>
<path d="M7.24219 14.1155V9.7688H7.34203L10.8811 11.8304V16.1227L7.24266 14.115" fill="#C0C0C0"/>
<path d="M10.8577 7.63831L7.24219 9.76924L10.9116 11.9231L14.5191 9.81565L10.8497 7.64627" fill="white"/>
<path d="M20.219 16.2155L20.1191 16.1157V12.061L20.219 12.0071V11.9072L23.6957 9.87659H23.8035V14.0611L20.196 16.1996" fill="#6C6C6C"/>
<path d="M16.5498 14.2312V9.86951H16.6651L20.1882 11.9236V16.2159L16.5498 14.2312Z" fill="#C0C0C0"/>
<path d="M20.1573 7.7391L16.5498 9.8766L20.2192 12.015L23.8267 9.90753L20.1573 7.73816" fill="white"/>
<path d="M15.7268 18.8461L15.627 18.7462V14.7079L15.7268 14.654V14.5542L19.2035 12.5236H19.3113V16.7081L15.7268 18.8461Z" fill="#6C6C6C"/>
<path d="M12.0498 16.8609V12.5156H12.1496L15.6887 14.5772V18.8466L12.0498 16.8609Z" fill="#C0C0C0"/>
<path d="M15.6653 10.3846L12.0498 12.5156L15.7192 14.654L19.3267 12.5465L15.6657 10.3856" fill="white"/>
</svg>
