<svg width="31" height="20" viewBox="0 0 31 20" fill="none" xmlns="http://www.w3.org/2000/svg">
<g clip-path="url(#clip0_677_381)">
<path d="M15.5 0.975952C11.5 0.975952 8.99996 2.97599 8 6.97595C9.5 4.97591 11.25 4.22591 13.25 4.72595C14.3911 5.01119 15.2067 5.83912 16.1095 6.7554C17.5802 8.24826 19.2822 9.97595 23 9.97595C27 9.97595 29.5 7.97591 30.5 3.97595C29 5.97599 27.25 6.72599 25.25 6.22595C24.1089 5.94072 23.2933 5.11279 22.3905 4.1965C20.9198 2.70365 19.2178 0.975952 15.5 0.975952ZM8 9.97595C4.00004 9.97595 1.49996 11.976 0.5 15.976C2 13.9759 3.74996 13.2259 5.75 13.726C6.89105 14.0112 7.70668 14.8391 8.60949 15.7554C10.0802 17.2483 11.7822 18.976 15.5 18.976C19.5 18.976 22 16.9759 23 12.976C21.5 14.976 19.75 15.726 17.75 15.226C16.6089 14.9407 15.7933 14.1128 14.8905 13.1965C13.4198 11.7036 11.7178 9.97595 8 9.97595Z" fill="url(#paint0_linear_677_381)"/>
</g>
<defs>
<linearGradient id="paint0_linear_677_381" x1="-212.85" y1="885.712" x2="-124.017" y2="1882.53" gradientUnits="userSpaceOnUse">
<stop stop-color="#FEFEFE"/>
<stop offset="1" stop-color="#D2D2D2"/>
<stop offset="1" stop-color="#D2D2D2"/>
</linearGradient>
<clipPath id="clip0_677_381">
<rect width="30" height="18.048" fill="white" transform="translate(0.5 0.975952)"/>
</clipPath>
</defs>
</svg>
