<svg width="39" height="38" viewBox="0 0 39 38" fill="none" xmlns="http://www.w3.org/2000/svg">
<g clip-path="url(#clip0_677_345)" filter="url(#filter0_d_677_345)">
<path d="M31.5703 0H7.42969C5.81167 0 4.5 1.31167 4.5 2.92969V27.0703C4.5 28.6883 5.81167 30 7.42969 30H31.5703C33.1883 30 34.5 28.6883 34.5 27.0703V2.92969C34.5 1.31167 33.1883 0 31.5703 0Z" fill="#8D8D8D"/>
<path d="M29.1939 3.90002H22.8564C22.0798 3.90002 21.4502 4.52962 21.4502 5.30627V15.6188C21.4502 16.3954 22.0798 17.025 22.8564 17.025H29.1939C29.9706 17.025 30.6002 16.3954 30.6002 15.6188V5.30627C30.6002 4.52962 29.9706 3.90002 29.1939 3.90002Z" fill="white"/>
<path d="M16.1441 3.90002H9.80664C9.02999 3.90002 8.40039 4.52962 8.40039 5.30627V23.1188C8.40039 23.8954 9.02999 24.525 9.80664 24.525H16.1441C16.9208 24.525 17.5504 23.8954 17.5504 23.1188V5.30627C17.5504 4.52962 16.9208 3.90002 16.1441 3.90002Z" fill="white"/>
</g>
<defs>
<filter id="filter0_d_677_345" x="0.5" y="0" width="38" height="38" filterUnits="userSpaceOnUse" color-interpolation-filters="sRGB">
<feFlood flood-opacity="0" result="BackgroundImageFix"/>
<feColorMatrix in="SourceAlpha" type="matrix" values="0 0 0 0 0 0 0 0 0 0 0 0 0 0 0 0 0 0 127 0" result="hardAlpha"/>
<feOffset dy="4"/>
<feGaussianBlur stdDeviation="2"/>
<feComposite in2="hardAlpha" operator="out"/>
<feColorMatrix type="matrix" values="0 0 0 0 0 0 0 0 0 0 0 0 0 0 0 0 0 0 0.25 0"/>
<feBlend mode="normal" in2="BackgroundImageFix" result="effect1_dropShadow_677_345"/>
<feBlend mode="normal" in="SourceGraphic" in2="effect1_dropShadow_677_345" result="shape"/>
</filter>
<clipPath id="clip0_677_345">
<rect width="30" height="30" fill="white" transform="translate(4.5)"/>
</clipPath>
</defs>
</svg>
