<svg width="28" height="28" viewBox="0 0 28 28" fill="none" xmlns="http://www.w3.org/2000/svg">
<g clip-path="url(#clip0_677_387)">
<path d="M0.5 14V0H27.5V28H0.5" fill="white"/>
<path d="M6.41992 14.049V15.19H9.92992V25.55H12.4207V15.19H15.9307V14.07C15.9307 13.44 15.9307 12.929 15.9037 12.915C15.9037 12.894 13.7639 12.887 11.1652 12.887L6.44017 12.908V14.056L6.41992 14.049ZM22.1947 12.88C22.8832 13.048 23.4097 13.37 23.8822 13.881C24.1319 14.161 24.5032 14.651 24.5302 14.777C24.5302 14.819 23.3624 15.638 22.6537 16.093C22.6267 16.114 22.5187 15.995 22.4107 15.813C22.0597 15.295 21.7019 15.071 21.1417 15.029C20.3317 14.973 19.7917 15.414 19.7917 16.149C19.7917 16.373 19.8322 16.499 19.9132 16.681C20.0954 17.066 20.4329 17.297 21.4792 17.773C23.4097 18.634 24.2467 19.201 24.7529 20.013C25.3267 20.923 25.4549 22.351 25.0702 23.422C24.6382 24.591 23.5852 25.382 22.0799 25.641C21.6074 25.725 20.5274 25.711 20.0212 25.62C18.9412 25.41 17.9084 24.85 17.2739 24.129C17.0242 23.849 16.5449 23.1 16.5719 23.051L16.8284 22.883L17.8409 22.274L18.6037 21.812L18.7792 22.057C19.0019 22.421 19.5014 22.911 19.7917 23.079C20.6692 23.548 21.8437 23.485 22.4242 22.939C22.6739 22.701 22.7819 22.449 22.7819 22.099C22.7819 21.777 22.7347 21.63 22.5794 21.385C22.3634 21.077 21.9314 20.825 20.7164 20.265C19.3192 19.649 18.7252 19.257 18.1717 18.655C17.8544 18.291 17.5642 17.724 17.4292 17.255C17.3279 16.849 17.2942 15.855 17.3887 15.456C17.6789 14.056 18.6982 13.076 20.1562 12.796C20.6287 12.698 21.7424 12.74 22.2082 12.866L22.1947 12.88Z" fill="black"/>
</g>
<defs>
<clipPath id="clip0_677_387">
<rect width="27" height="28" fill="white" transform="translate(0.5)"/>
</clipPath>
</defs>
</svg>
