<svg width="30" height="30" viewBox="0 0 30 30" fill="none" xmlns="http://www.w3.org/2000/svg">
<path d="M27.5 6.94375V23.0562C27.5 23.85 27.0062 24.5562 26.2625 24.8187L20.75 27.4062L21.25 20.625V9.375L20.75 2.59375L26.2625 5.18125C27.0062 5.44375 27.5 6.15 27.5 6.94375Z" fill="#C6C6C6"/>
<path d="M5.62489 21.185L21.2499 9.37497V3.34559C21.2499 2.59684 20.3236 2.24684 19.828 2.80809L2.91114 18.2743C2.34864 18.7931 2.38051 19.6912 2.97801 20.1693C2.97801 20.1693 3.80551 20.9393 4.10489 21.1531C4.56489 21.4812 5.16926 21.5187 5.62489 21.185Z" fill="white"/>
<path d="M5.62489 8.81498L21.2499 20.625V26.6544C21.2499 27.4031 20.3236 27.7531 19.828 27.1919L2.91114 11.7256C2.34864 11.2069 2.38051 10.3087 2.97801 9.8306C2.97801 9.8306 3.80551 9.0606 4.10489 8.84685C4.56489 8.51873 5.16926 8.48123 5.62489 8.81498Z" fill="#D1D1D1"/>
</svg>
